<svg version="1.0" xmlns="http://www.w3.org/2000/svg"
 width="1024.000000pt" height="465.000000pt" viewBox="0 0 1024.000000 465.000000"
 preserveAspectRatio="xMidYMid meet">

<g id="l2" transform="translate(0.000000,465.000000) scale(0.100000,-0.100000)"
fill="#000000" stroke="none">
<path d="M3241 4574 c-2 -76 78 -248 162 -352 21 -26 71 -101 110 -167 81
-136 146 -313 146 -400 1 -54 -10 -82 -28 -71 -20 13 -12 -51 14 -108 57 -124
69 -182 54 -262 -9 -46 -8 -60 5 -79 9 -14 16 -28 16 -33 0 -13 -105 -82 -147
-98 -21 -7 -48 -13 -61 -14 l-24 0 21 -34 c12 -18 21 -36 21 -38 0 -3 -51 -8
-112 -11 -62 -4 -135 -12 -163 -20 l-50 -13 25 -16 c14 -9 35 -19 48 -23 32
-9 24 -24 -32 -54 -43 -23 -46 -27 -29 -39 18 -13 29 -16 96 -27 42 -7 117
-70 117 -100 0 -31 -75 -11 -141 39 l-58 44 -52 -12 c-50 -11 -61 -20 -73 -58
-4 -14 -17 -18 -56 -18 -52 0 -242 19 -248 25 -2 2 4 27 12 56 9 29 16 61 16
71 0 17 -2 18 -19 6 -30 -21 -158 -14 -185 10 -29 25 -76 46 -107 47 -21 1
-25 -3 -21 -20 5 -27 -16 -105 -28 -105 -39 0 -51 28 -23 56 22 21 35 134 18
149 -6 6 -22 27 -36 47 -27 42 -97 78 -150 78 -50 0 -115 -43 -129 -85 -13
-39 -33 -42 -38 -7 -2 12 -7 22 -12 22 -15 0 -67 -55 -84 -89 -15 -29 -20 -31
-69 -31 -33 0 -61 6 -76 17 l-24 16 5 -51 c3 -35 14 -63 32 -87 33 -43 17 -46
-27 -5 -26 26 -38 30 -67 26 -68 -10 -110 -29 -110 -52 0 -13 -11 -25 -32 -35
-26 -11 -34 -21 -36 -46 -4 -36 26 -73 58 -73 12 0 24 -10 29 -24 17 -43 65
-47 177 -15 l73 22 43 -35 c31 -26 48 -50 62 -89 41 -117 84 -196 144 -263 69
-78 95 -133 69 -147 -23 -13 -33 -121 -13 -151 10 -15 14 -41 12 -73 -2 -29 5
-73 16 -104 10 -30 16 -57 13 -59 -3 -3 -37 9 -77 26 -40 16 -74 29 -76 27 -2
-2 21 -36 52 -77 67 -87 71 -105 21 -83 -34 14 -33 12 20 -36 60 -56 67 -69
33 -69 -21 0 -20 -2 9 -33 17 -17 50 -70 74 -117 24 -47 53 -94 64 -105 27
-26 58 -75 52 -82 -8 -8 -49 17 -85 50 -51 49 -37 14 17 -42 27 -27 61 -53 75
-57 24 -6 25 -9 20 -45 -5 -30 -3 -40 10 -45 12 -5 16 -19 16 -56 0 -43 8 -63
58 -147 32 -53 78 -133 103 -178 42 -80 43 -83 24 -97 -23 -16 -16 -35 40
-121 22 -33 35 -64 35 -85 0 -42 30 -81 131 -170 l80 -71 112 3 112 3 3 36 c3
31 -2 39 -35 65 -21 15 -42 33 -48 39 -29 33 -122 102 -131 98 -13 -4 -64 51
-65 70 -2 30 -11 68 -35 139 -24 73 -28 78 -54 78 -24 0 -29 5 -34 37 -4 21
-11 49 -15 63 -35 100 -45 152 -44 229 1 71 -3 90 -22 120 -19 32 -22 45 -17
114 4 78 5 79 29 72 16 -4 36 1 56 13 18 11 62 23 100 27 49 5 73 12 87 27 24
26 109 33 125 11 19 -25 96 -28 147 -5 l46 20 -5 48 c-7 79 -11 90 -38 102
-19 9 -25 19 -24 44 0 28 10 41 66 88 72 61 193 191 193 208 0 6 -9 16 -21 22
-20 11 -17 15 41 67 33 30 67 68 75 83 14 26 13 28 -5 23 -37 -10 -22 25 25
57 45 31 58 55 53 99 -5 36 25 50 61 28 44 -26 46 -21 12 25 -20 27 -28 45
-21 52 6 6 14 5 22 -2 12 -9 149 -33 156 -27 1 1 -32 15 -75 30 -71 25 -94 32
-115 34 -4 1 -8 13 -10 29 -2 16 -9 27 -18 27 -8 0 -21 -12 -28 -27 -7 -16
-17 -28 -22 -28 -16 0 -21 19 -10 40 8 15 8 25 1 34 -6 7 -8 16 -4 19 10 11
103 8 103 -3 0 -5 9 -10 19 -10 40 0 207 62 313 117 l111 56 -56 53 c-58 54
-189 145 -266 184 -37 19 -50 21 -78 12 -18 -6 -42 -8 -53 -5 -26 7 -26 33 0
33 11 0 19 3 18 8 -1 4 2 22 6 40 8 36 26 44 26 11 0 -31 18 -59 35 -53 8 4
15 14 15 24 0 21 16 34 45 36 11 1 56 8 100 15 l80 13 -50 8 c-27 5 -69 6 -92
3 -57 -6 -57 12 0 59 l42 36 -50 -3 c-56 -2 -53 -10 -39 94 5 38 2 52 -20 83
-32 48 -41 75 -27 89 7 7 15 7 25 -2 25 -21 -10 105 -50 177 -34 63 -36 82 -9
82 8 0 19 9 25 21 10 17 5 40 -26 122 -20 56 -54 141 -75 188 -22 48 -39 90
-39 93 0 4 -11 23 -23 44 -13 20 -43 71 -67 112 -24 41 -49 82 -56 90 -23 28
-64 109 -64 126 0 9 -22 41 -50 71 -27 30 -50 59 -50 64 0 6 -11 25 -25 43
-13 18 -36 57 -49 87 -23 50 -25 52 -25 23z m-142 -2070 c17 -4 31 -13 31 -21
0 -14 51 -63 107 -101 18 -12 33 -26 33 -31 0 -5 -23 -11 -52 -14 -28 -4 -55
-10 -60 -15 -9 -9 115 -65 186 -84 25 -7 46 -18 46 -25 0 -7 -4 -13 -10 -13
-23 0 -7 -17 28 -29 35 -13 122 -90 122 -109 0 -5 -9 -17 -20 -27 -11 -10 -20
-31 -20 -47 0 -49 -28 -100 -95 -169 -63 -65 -81 -94 -50 -83 23 9 19 -34 -6
-76 -30 -48 -90 -120 -100 -120 -5 0 -9 12 -9 26 0 22 -2 25 -15 14 -8 -7 -20
-30 -27 -51 -6 -22 -17 -39 -24 -39 -15 0 -74 72 -74 90 0 7 -34 52 -75 101
-41 48 -75 92 -75 97 0 6 -8 8 -18 5 -14 -3 -26 9 -50 54 l-31 58 -1 -37 c0
-55 -20 -48 -80 27 -28 36 -55 65 -60 65 -5 0 -19 28 -32 61 -13 36 -30 64
-40 66 -36 10 -28 146 20 347 9 39 48 65 108 75 59 10 299 13 343 5z m-379
-614 c0 -28 -4 -40 -14 -40 -21 0 -27 14 -20 49 10 46 34 40 34 -9z m-103
-280 c10 -11 21 -20 26 -20 9 0 183 -107 221 -135 27 -21 13 -30 -47 -31 -38
-1 -59 5 -79 19 l-28 21 -30 -29 c-16 -16 -33 -25 -37 -22 -7 7 -47 135 -59
190 -8 32 8 36 33 7z m89 -385 c19 -29 11 -44 -14 -29 -19 12 -29 54 -13 54 6
0 18 -11 27 -25z"/>
<path d="M6161 3914 c-24 -31 -24 -31 -10 -75 20 -58 36 -70 92 -65 42 4 64
-2 154 -41 l104 -46 -7 -41 c-4 -22 -8 -84 -9 -136 -2 -52 -8 -110 -14 -129
-6 -21 -7 -39 -2 -45 6 -7 4 -39 -5 -81 -10 -47 -12 -76 -5 -90 14 -29 24 -91
26 -160 1 -33 4 -69 8 -80 3 -11 13 -46 22 -77 13 -45 21 -58 35 -58 18 0 53
-48 49 -67 -1 -4 1 -16 6 -26 5 -13 2 -22 -13 -33 -60 -42 -110 -196 -94 -292
12 -68 4 -104 -48 -235 -38 -94 -41 -111 -30 -131 7 -15 9 -36 5 -56 -11 -52
-68 -140 -90 -140 -32 -1 -287 -316 -340 -420 -30 -59 -32 -78 -16 -118 15
-35 6 -56 -29 -67 -10 -3 -23 -19 -29 -36 -8 -24 -7 -36 6 -57 41 -65 52 -72
124 -72 48 0 80 6 106 19 21 11 59 23 85 26 43 7 51 4 101 -31 76 -53 90 -84
91 -194 1 -83 3 -91 28 -117 26 -25 29 -26 66 -14 30 10 50 28 82 73 l42 60
-16 63 c-20 78 -20 85 -2 85 20 0 39 63 31 100 -13 58 -88 120 -144 120 -10 0
-27 13 -39 30 -21 28 -21 32 -8 58 10 19 12 32 5 39 -11 11 65 86 164 161 l56
44 27 -21 c15 -12 41 -21 60 -21 32 0 42 -9 139 -133 89 -113 119 -143 189
-191 145 -98 184 -135 213 -198 22 -49 35 -64 77 -89 32 -19 61 -47 75 -71 12
-21 30 -42 39 -46 9 -3 25 -16 35 -29 10 -12 57 -43 105 -68 48 -25 111 -68
141 -96 49 -46 52 -51 36 -63 -16 -11 -11 -16 47 -49 80 -44 82 -48 113 -133
13 -38 42 -117 64 -176 66 -179 65 -178 191 -178 83 0 99 3 114 19 16 18 16
26 5 78 -19 91 -80 198 -178 318 -50 61 -112 140 -138 177 -27 37 -52 67 -58
68 -20 1 -103 117 -147 204 l-45 90 78 163 c57 120 92 211 132 345 64 212 87
369 112 742 20 300 40 473 56 492 10 13 10 17 -1 24 -10 6 -8 15 10 40 13 18
27 49 31 69 4 20 14 54 22 76 10 27 12 42 5 46 -7 5 -5 21 6 51 19 45 38 145
26 131 -4 -4 -27 -35 -51 -68 -82 -113 -168 -193 -259 -240 -19 -10 -41 -26
-48 -36 -15 -22 -29 -24 -34 -6 -6 22 -63 117 -69 114 -3 -1 -29 -28 -56 -59
-39 -45 -55 -74 -72 -133 -13 -41 -27 -78 -33 -81 -5 -3 -7 -17 -4 -30 6 -21
3 -24 -19 -24 -33 0 -42 24 -25 64 35 85 16 131 -68 163 -132 52 -190 92 -330
227 -75 73 -146 136 -157 139 -11 3 -38 13 -60 21 -76 29 -160 13 -185 -34
-18 -33 -50 -141 -50 -166 0 -36 -21 -29 -74 25 -41 41 -48 54 -42 75 4 17 13
26 26 26 28 0 26 51 -5 128 -14 34 -24 79 -23 100 1 37 -24 92 -43 92 -20 0
-7 21 19 32 15 6 41 27 59 47 17 19 35 32 40 27 12 -12 8 -168 -6 -193 -6 -13
-18 -23 -26 -23 -20 0 -19 -10 5 -35 14 -15 29 -21 45 -17 23 4 24 5 10 33
-26 50 12 219 49 219 23 0 46 -36 46 -72 0 -32 2 -35 26 -30 14 2 28 11 31 18
7 20 31 17 42 -4 5 -9 26 -23 48 -31 21 -7 103 -42 183 -76 338 -146 479 -203
521 -210 l44 -7 -35 31 c-19 17 -183 112 -365 212 -181 100 -338 188 -347 196
-9 8 -22 12 -28 8 -14 -8 -40 13 -40 32 0 8 -8 25 -19 38 l-18 24 -12 -25 c-9
-20 -17 -25 -39 -22 -25 3 -28 7 -36 68 -10 76 13 180 39 180 20 0 19 13 -6
44 -22 28 -59 35 -59 12 0 -8 5 -18 11 -22 19 -11 1 -141 -27 -197 -30 -57
-57 -61 -62 -9 -3 30 -9 36 -60 59 -55 24 -58 24 -88 8 -32 -17 -32 -17 -131
34 -89 46 -173 107 -173 126 0 11 -32 34 -47 35 -6 0 -21 -12 -32 -26z m975
-926 c4 -13 17 -36 30 -51 31 -37 31 -51 -1 -43 -23 6 -24 5 -14 -20 5 -15 17
-40 26 -55 14 -23 15 -31 4 -41 -10 -11 -14 -10 -22 5 -6 9 -17 17 -24 17 -8
0 -15 5 -15 11 0 8 -4 8 -12 1 -14 -11 -65 -5 -73 8 -3 5 11 41 30 81 19 41
35 81 35 91 0 26 27 22 36 -4z m135 -324 c11 -14 10 -18 -6 -30 -22 -16 -25
-17 -44 -5 -18 12 -5 51 18 51 10 0 25 -7 32 -16z m-47 -366 c3 -18 17 -145
31 -283 22 -215 32 -274 70 -418 25 -92 45 -172 45 -177 0 -26 -21 -2 -85 95
-40 60 -77 105 -86 105 -9 0 -24 9 -34 20 -14 16 -15 22 -5 34 17 21 13 28
-53 85 -44 38 -66 51 -90 51 -29 0 -35 6 -65 61 -26 49 -30 64 -21 81 9 16 7
24 -12 44 -22 23 -22 25 -6 59 11 24 33 44 68 62 64 35 109 71 109 87 0 7 9
21 20 31 11 10 20 24 20 31 0 15 57 64 75 64 7 0 15 -15 19 -32z"/>
<path d="M4975 3552 c-27 -43 -30 -54 -27 -121 2 -63 0 -72 -14 -67 -10 4 -14
2 -10 -6 29 -73 29 -84 -3 -128 -17 -24 -31 -49 -31 -55 0 -15 -54 -27 -86
-19 -36 9 -29 30 19 59 l42 27 -63 -6 c-34 -3 -100 -15 -145 -27 -54 -13 -83
-17 -85 -10 -2 6 -12 21 -22 33 -23 28 -46 18 -69 -30 l-16 -32 -94 0 c-84 0
-97 3 -126 24 l-31 24 4 -86 c2 -48 8 -91 13 -96 17 -18 9 -34 -21 -45 -42
-14 -37 -19 14 -14 39 5 45 3 65 -26 12 -17 20 -35 17 -40 -3 -5 20 -35 52
-68 33 -33 72 -87 92 -128 21 -42 59 -93 95 -130 l60 -60 3 39 c3 37 -12 74
-85 211 -32 60 -35 69 -40 127 -4 35 -10 58 -17 58 -25 0 -47 25 -40 44 6 16
15 18 55 13 39 -5 51 -3 61 12 21 29 74 33 152 12 39 -11 82 -19 96 -18 25 2
25 1 25 -73 0 -68 -3 -81 -32 -126 -18 -28 -33 -64 -33 -80 0 -30 31 -91 57
-111 13 -10 12 -17 -7 -60 l-21 -48 20 -14 c21 -13 30 -61 11 -61 -17 0 -121
-151 -123 -178 -2 -22 -13 -32 -67 -59 -66 -33 -124 -88 -116 -110 7 -17 -86
-100 -122 -107 -52 -12 -59 -30 -28 -76 l27 -40 -60 -88 c-71 -103 -82 -145
-50 -186 22 -27 210 -127 334 -176 33 -13 79 -37 103 -52 23 -16 63 -36 87
-45 33 -11 45 -20 45 -35 0 -31 17 -54 49 -67 24 -10 34 -10 57 2 27 14 30 13
71 -20 23 -19 47 -32 52 -28 10 5 71 -78 71 -96 0 -11 106 -110 137 -129 22
-14 26 -13 38 4 22 30 29 121 15 218 -12 81 -12 91 4 106 16 16 18 16 34 -4 9
-12 25 -36 34 -53 9 -17 33 -40 51 -51 26 -16 55 -56 119 -168 157 -272 178
-311 178 -334 0 -13 13 -45 29 -72 29 -49 29 -51 12 -75 -34 -49 -34 -49 24
-67 39 -13 55 -23 55 -35 0 -10 4 -20 8 -23 15 -9 34 -117 28 -152 -4 -18 -2
-51 3 -71 6 -22 7 -64 2 -99 -4 -34 -5 -66 -3 -73 2 -7 38 -11 107 -11 97 0
105 1 116 22 21 39 23 148 4 193 -12 29 -55 225 -55 252 0 1 -14 18 -30 37
l-30 34 21 36 c12 20 20 38 18 40 -2 2 -24 7 -49 12 l-44 9 -22 100 c-25 109
-81 258 -106 278 -8 6 -20 26 -26 44 -6 17 -47 78 -93 135 -80 101 -119 170
-153 275 -10 29 -22 55 -27 58 -5 4 -9 18 -9 31 0 36 22 25 33 -17 12 -48 25
-57 32 -23 19 83 22 89 38 86 12 -2 17 4 17 24 0 16 11 36 29 53 l29 27 -115
57 c-103 52 -114 60 -111 82 2 15 -7 34 -23 52 -27 29 -152 263 -145 271 3 2
28 -14 58 -36 70 -53 206 -137 254 -157 133 -56 364 -86 378 -49 13 33 5 130
-15 203 -34 123 -112 260 -224 396 -30 37 -55 70 -55 74 0 3 32 14 71 23 109
26 143 46 147 86 4 38 -8 55 -61 89 -32 20 -36 27 -26 39 11 13 9 14 -15 8
-19 -5 -36 0 -64 18 -20 13 -74 35 -119 48 -111 32 -108 28 -94 87 13 55 4
116 -24 159 -23 35 -41 40 -81 20 -31 -14 -38 -14 -62 -2 -24 13 -31 12 -74
-10 l-48 -24 -10 25 c-14 36 -13 47 6 73 20 29 58 140 42 124 -25 -25 -30 -11
-23 62 7 75 -3 115 -38 161 -15 18 -15 17 -2 -20 18 -52 18 -73 1 -91 -12 -12
-20 -11 -58 6 -54 25 -65 25 -135 0 -32 -11 -61 -20 -65 -20 -14 0 -9 37 12
86 11 26 19 48 17 50 -1 2 -16 -18 -32 -44z m34 -398 c13 -37 6 -54 -24 -54
-29 0 -37 17 -25 54 15 46 32 46 49 0z m-534 -105 c4 -6 5 -12 2 -15 -7 -7
-37 7 -37 17 0 13 27 11 35 -2z m396 -1236 c0 -16 6 -83 13 -150 13 -133 13
-133 -38 -114 -26 11 -189 128 -194 141 -1 4 6 18 17 31 17 21 22 22 40 11 19
-11 21 -10 21 10 0 17 16 33 58 60 70 44 82 46 83 11z"/>
<path d="M9750 3180 c0 -5 -6 -10 -13 -10 -19 0 -41 -40 -28 -53 16 -16 14
-30 -8 -53 -28 -31 -41 -60 -41 -93 0 -17 -2 -31 -5 -31 -3 0 -33 14 -67 31
l-60 31 22 -32 c12 -17 42 -45 66 -63 l43 -32 1 -66 0 -67 -32 -7 c-105 -21
-362 -29 -425 -12 -29 8 -53 11 -53 7 0 -9 61 -64 86 -78 10 -6 15 -16 11 -26
-5 -13 -25 -16 -124 -16 -65 0 -160 7 -211 14 -50 8 -117 12 -148 9 l-56 -6 7
-33 c5 -29 3 -34 -12 -34 -15 0 -25 22 -51 123 -18 67 -32 132 -32 144 0 25
26 43 62 43 22 0 21 1 -7 19 -46 28 -82 71 -119 140 l-33 63 -5 -89 c-3 -69
-9 -98 -26 -127 -28 -47 -28 -47 6 -40 49 10 66 -18 101 -158 25 -103 29 -132
20 -152 -18 -39 -3 -111 25 -124 21 -9 29 -32 66 -184 23 -95 67 -274 97 -397
52 -211 55 -228 45 -285 -9 -58 -9 -62 14 -87 13 -14 24 -28 24 -31 0 -3 -18
-18 -41 -34 -29 -20 -48 -45 -65 -82 -13 -30 -24 -58 -24 -63 0 -5 19 4 41 21
l41 30 29 -21 c35 -25 36 -34 4 -81 -17 -26 -37 -40 -63 -47 -21 -6 -54 -28
-75 -49 l-38 -39 31 5 c33 5 60 -11 60 -36 0 -17 -39 -121 -70 -190 -11 -23
-20 -56 -20 -74 l0 -31 43 40 c48 45 111 64 132 41 7 -7 25 -42 41 -77 l28
-63 -27 -48 c-20 -36 -25 -56 -21 -79 7 -33 24 -53 24 -27 0 8 9 20 20 26 24
13 60 4 60 -13 0 -7 52 -76 115 -155 99 -125 115 -141 120 -120 3 13 21 106
40 207 25 137 39 187 52 197 24 18 40 17 52 -3 9 -15 10 -14 11 10 0 40 -15
64 -53 83 -47 25 -56 42 -57 110 0 48 4 65 19 78 25 23 87 31 134 18 20 -6 37
-8 37 -6 0 18 -26 47 -58 63 -20 11 -55 38 -77 61 -46 47 -41 54 35 65 30 4
62 1 95 -10 69 -22 269 -121 288 -143 9 -9 26 -74 40 -146 l25 -128 -21 -112
c-27 -146 -28 -217 -3 -244 16 -19 17 -33 12 -129 -3 -59 -8 -134 -12 -166
l-7 -57 61 0 c90 0 91 3 80 223 -9 169 -9 185 16 333 31 182 46 254 52 254 3
0 20 -11 38 -25 18 -14 36 -25 39 -25 4 0 7 56 7 125 0 69 9 214 21 323 11
108 19 240 17 292 -1 60 4 128 15 185 12 59 17 127 16 197 -2 87 0 111 14 125
11 13 13 23 7 33 -5 8 -10 29 -10 47 0 17 -5 35 -10 38 -6 4 -22 24 -35 46
-14 21 -37 45 -52 53 -27 13 -28 17 -25 75 4 56 6 63 33 76 56 30 75 102 38
149 -21 26 -131 86 -160 86 -8 0 -41 16 -73 34 -72 42 -96 84 -70 124 9 13 24
27 35 29 10 3 21 14 24 24 4 10 26 27 51 38 24 11 54 27 67 36 l22 16 -27 -5
c-16 -3 -39 -8 -53 -11 -25 -5 -25 -4 -24 53 1 32 -4 68 -10 80 -14 25 -14 69
-1 74 5 2 6 9 1 17 -6 9 -27 15 -58 15 -45 1 -48 3 -51 29 -3 25 -32 41 -32
17z m-174 -618 c25 -17 68 -117 83 -194 14 -72 20 -83 39 -86 15 -2 24 -14 32
-40 5 -20 17 -47 26 -60 15 -22 14 -25 -7 -57 -13 -19 -31 -36 -40 -38 -10 -3
-25 -20 -34 -38 -10 -19 -29 -46 -43 -61 -22 -24 -23 -28 -8 -34 26 -10 18
-92 -21 -219 -18 -60 -42 -156 -53 -213 -11 -57 -28 -122 -38 -145 -46 -101
-208 -263 -242 -242 -19 12 -10 53 15 73 l25 20 -39 7 c-22 3 -60 3 -85 0 -37
-6 -52 -3 -81 15 -39 24 -44 47 -17 79 15 19 22 21 67 12 l50 -9 -35 30 c-58
49 -76 59 -127 67 l-48 7 3 42 c3 34 -2 49 -26 80 -16 20 -32 43 -36 50 -15
26 -178 659 -183 712 -8 88 25 143 65 107 36 -33 66 -31 129 10 62 40 113 58
273 93 149 33 331 49 356 32z m-386 -1883 c20 -47 21 -61 14 -160 -3 -60 -10
-109 -15 -109 -4 0 -33 39 -64 86 -52 78 -57 90 -58 146 l-2 61 35 13 c58 21
66 18 90 -37z"/>
<path d="M13 2423 c-10 -3 -13 -53 -13 -199 l0 -194 65 0 65 0 -62 96 -61 96
21 97 c12 53 22 100 22 104 0 8 -18 8 -37 0z"/>
<path d="M593 2278 c-23 -29 -90 -174 -86 -186 3 -8 -3 -34 -12 -59 -17 -43
-17 -47 -1 -58 9 -7 16 -17 16 -23 0 -13 36 -49 62 -63 17 -9 18 2 15 175 -1
101 2 188 6 193 11 10 55 -43 63 -75 4 -13 1 -29 -5 -35 -6 -6 -11 -19 -11
-29 0 -24 34 -90 54 -107 9 -8 16 -21 16 -30 0 -9 11 -29 25 -46 43 -49 32
-74 -45 -104 l-65 -26 -12 -55 c-7 -30 -10 -67 -7 -81 3 -17 -1 -31 -16 -44
-11 -10 -20 -26 -20 -35 0 -12 -11 -20 -31 -24 -55 -11 -62 -8 -55 19 6 25 6
25 -74 -15 -79 -40 -80 -40 -118 -25 -20 9 -52 15 -69 13 -39 -3 -62 22 -63
69 0 23 -10 45 -33 70 -37 42 -102 185 -94 205 2 8 -4 24 -14 37 -19 23 -19
23 -19 -78 0 -56 3 -101 8 -101 14 0 42 -62 42 -92 0 -21 10 -40 33 -62 19
-17 40 -46 47 -65 12 -30 12 -35 -3 -46 -35 -25 30 -145 80 -145 13 0 22 -15
36 -60 10 -36 25 -63 37 -70 21 -11 28 -40 10 -40 -13 0 -13 -41 0 -75 10 -26
56 -75 71 -75 17 0 9 36 -12 53 -30 26 -24 91 9 95 29 4 62 -24 62 -53 0 -21
17 -45 32 -45 12 0 10 58 -3 83 -23 44 -51 67 -76 61 -21 -6 -23 -3 -23 28 0
19 -11 49 -26 71 -38 57 -28 71 51 65 l64 -6 16 34 c14 30 20 34 55 34 37 0
76 12 143 46 41 20 77 18 77 -4 0 -10 5 -23 11 -29 6 -6 11 -32 12 -59 2 -46
0 -49 -24 -52 -20 -2 -28 -10 -32 -30 -4 -18 -27 -45 -66 -76 -51 -41 -59 -51
-50 -67 7 -14 5 -31 -11 -66 l-20 -46 27 -29 c15 -16 38 -31 51 -35 36 -9 20
-27 -29 -33 -48 -6 -129 -55 -155 -96 -10 -14 -14 -33 -10 -49 5 -21 -1 -29
-42 -57 -65 -43 -127 -100 -144 -131 -7 -13 -23 -43 -36 -66 -25 -45 -73 -81
-110 -81 -29 0 -61 -17 -84 -44 -13 -16 -17 -39 -18 -92 0 -65 2 -73 25 -88
31 -20 77 -20 118 0 47 25 141 90 162 114 18 20 52 29 40 10 -3 -5 0 -10 8
-10 24 0 140 110 183 174 36 53 47 63 87 73 40 11 52 21 89 75 24 35 45 70 48
79 3 9 42 56 88 103 45 48 82 91 82 96 0 6 10 10 23 10 17 0 33 -20 76 -98 30
-53 81 -133 113 -176 83 -111 111 -163 110 -199 -1 -18 8 -68 19 -112 14 -60
26 -85 44 -98 14 -10 25 -25 25 -32 0 -31 42 -145 68 -184 16 -23 48 -53 71
-67 40 -22 53 -24 182 -24 76 0 139 4 139 8 0 12 -80 86 -131 120 -35 23 -52
44 -65 79 -11 26 -33 75 -50 108 -25 50 -29 66 -22 95 12 54 4 70 -76 153 -68
70 -78 86 -96 150 -12 40 -44 122 -71 184 -27 62 -49 118 -49 125 0 7 18 23
40 36 22 12 40 28 40 35 0 7 -11 29 -24 48 -15 21 -23 44 -20 56 4 14 -14 37
-71 91 -42 40 -80 84 -85 97 -7 19 -17 25 -39 25 -37 0 -42 13 -48 121 -8 119
3 193 32 227 22 26 28 27 104 25 67 -2 80 0 83 14 3 18 98 41 171 42 21 1 54
8 74 16 34 14 38 14 57 -3 39 -35 55 -34 114 7 46 32 72 42 131 51 41 6 80 15
85 20 12 9 13 119 1 165 -12 46 -25 58 -60 52 -44 -8 -156 -77 -166 -104 -5
-13 -14 -24 -21 -24 -28 -3 -135 2 -160 7 -26 5 -27 4 -22 -25 5 -26 3 -31
-12 -31 -11 0 -43 -11 -72 -25 -61 -28 -120 -33 -128 -10 -8 21 -64 46 -86 39
-10 -3 -43 4 -73 15 -31 12 -65 21 -76 21 -16 0 -19 5 -14 20 3 10 6 46 6 80
1 51 -4 65 -26 93 -51 62 -108 79 -197 58 -26 -6 -50 -5 -75 4 -69 23 -99 27
-110 13z"/>
</g>
</svg>
